<svg width="50" height="50" viewBox="0 0 50 50" fill="none" xmlns="http://www.w3.org/2000/svg">
<path d="M42.2562 21.575H24.9083V28.7646H34.8917C33.9625 33.3333 30.0729 35.9583 24.9083 35.9583C23.4632 35.9608 22.0318 35.678 20.6962 35.126C19.3606 34.574 18.1472 33.7639 17.1254 32.7419C16.1036 31.7199 15.2937 30.5063 14.742 29.1706C14.1903 27.8349 13.9077 26.4035 13.9104 24.9583C13.9079 23.5134 14.1907 22.0821 14.7426 20.7467C15.2944 19.4113 16.1044 18.1979 17.1261 17.1761C18.1479 16.1544 19.3612 15.3444 20.6967 14.7926C22.0321 14.2407 23.4634 13.9579 24.9083 13.9604C27.5312 13.9604 29.9021 14.8917 31.7625 16.4146L37.1792 11C33.8792 8.12292 29.6479 6.34792 24.9083 6.34792C22.4621 6.34077 20.0386 6.81731 17.7772 7.75015C15.5158 8.68298 13.4611 10.0537 11.7314 11.7834C10.0016 13.5132 8.63089 15.5679 7.69806 17.8293C6.76523 20.0907 6.28868 22.5142 6.29583 24.9604C6.2884 27.4067 6.76476 29.8304 7.6975 32.0919C8.63023 34.3534 10.0009 36.4082 11.7307 38.138C13.4606 39.8678 15.5153 41.2385 17.7769 42.1713C20.0384 43.104 22.462 43.5803 24.9083 43.5729C34.2146 43.5729 42.6771 36.8042 42.6771 24.9604C42.6771 23.8604 42.5083 22.675 42.2562 21.575Z" fill="#FF7300"/>
</svg>
